<svg viewBox="0 0 24 24" xmlns="http://www.w3.org/2000/svg"><path d="m22.5 4.5a1 1 0 0 1 1 1v7a1 1 0 0 1 -1 1h-21a1 1 0 0 1 -1-1v-7a1 1 0 0 1 1-1z" fill="#fff"/><path d="m23.5 7.491v-1.991a1 1 0 0 0 -1-1h-21a1 1 0 0 0 -1 1v1.991z" fill="#6de5b7"/><g stroke="#047857" stroke-linecap="round" stroke-linejoin="round"><path d="m10.5 13.5h-9a1 1 0 0 1 -1-1v-7a1 1 0 0 1 1-1h21a1 1 0 0 1 1 1v5.021" fill="none"/><path d="m4.5 7v4" fill="none"/><path d="m6.173 7.9-3.345 2.194" fill="none"/><path d="m6.164 10.11-3.328-2.22" fill="none"/><path d="m10.5 7v4" fill="none"/><path d="m12.173 7.9-3.345 2.194" fill="none"/><path d="m12.164 10.11-3.328-2.22" fill="none"/></g><path d="m13.5 16.5a1 1 0 0 1 1-1h7a1 1 0 0 1 1 1v6a1 1 0 0 1 -1 1h-7a1 1 0 0 1 -1-1z" fill="#10b881"/><path d="m18 15.5h-3.5a1 1 0 0 0 -1 1v6a1 1 0 0 0 1 1h3.5z" fill="#6de5b7"/><path d="m13.5 16.5a1 1 0 0 1 1-1h7a1 1 0 0 1 1 1v6a1 1 0 0 1 -1 1h-7a1 1 0 0 1 -1-1z" fill="none" stroke="#047857" stroke-linecap="round" stroke-linejoin="round"/><path d="m18 20.815a1.25 1.25 0 1 0 -1.25-1.25 1.25 1.25 0 0 0 1.25 1.25z" fill="#10b881" stroke="#047857" stroke-linecap="round" stroke-linejoin="round"/><path d="m20.5 14a2.5 2.5 0 0 0 -5 0v1.5h5z" fill="none" stroke="#047857" stroke-linecap="round" stroke-linejoin="round"/></svg>